<?xml version="1.0" encoding="UTF-8"?>
<svg version="1.1" xmlns="http://www.w3.org/2000/svg" width="512" height="512">
<path d="M0 0 C1.45108658 0.00273422 1.45108658 0.00273422 2.93148804 0.00552368 C17.26440977 0.05095174 31.21023917 0.55983928 45.3125 3.3125 C46.65803955 3.55395752 46.65803955 3.55395752 48.03076172 3.80029297 C107.84088904 14.62287989 165.35495829 48.68064457 202.3125 97.3125 C202.72918945 97.85277832 203.14587891 98.39305664 203.57519531 98.94970703 C211.2584873 108.9447116 218.00092968 119.40459036 224.3125 130.3125 C224.70679199 130.98974121 225.10108398 131.66698242 225.50732422 132.36474609 C238.68961173 155.2833756 247.29510918 180.85822563 252.625 206.6875 C252.77243652 207.39817627 252.91987305 208.10885254 253.07177734 208.84106445 C256.05713787 224.48358366 256.6873098 240.11919606 256.625 256 C256.62226578 257.45108658 256.62226578 257.45108658 256.61947632 258.93148804 C256.57404826 273.26440977 256.06516072 287.21023917 253.3125 301.3125 C253.15152832 302.20952637 252.99055664 303.10655273 252.82470703 304.03076172 C242.00212011 363.84088904 207.94435543 421.35495829 159.3125 458.3125 C158.77222168 458.72918945 158.23194336 459.14587891 157.67529297 459.57519531 C147.6802884 467.2584873 137.22040964 474.00092968 126.3125 480.3125 C125.63525879 480.70679199 124.95801758 481.10108398 124.26025391 481.50732422 C101.3416244 494.68961173 75.76677437 503.29510918 49.9375 508.625 C49.22682373 508.77243652 48.51614746 508.91987305 47.78393555 509.07177734 C32.14141634 512.05713787 16.50580394 512.6873098 0.625 512.625 C-0.34239105 512.62317719 -1.3097821 512.62135437 -2.30648804 512.61947632 C-16.63940977 512.57404826 -30.58523917 512.06516072 -44.6875 509.3125 C-45.58452637 509.15152832 -46.48155273 508.99055664 -47.40576172 508.82470703 C-107.21588904 498.00212011 -164.72995829 463.94435543 -201.6875 415.3125 C-202.10418945 414.77222168 -202.52087891 414.23194336 -202.95019531 413.67529297 C-210.6334873 403.6802884 -217.37592968 393.22040964 -223.6875 382.3125 C-224.08179199 381.63525879 -224.47608398 380.95801758 -224.88232422 380.26025391 C-238.06461173 357.3416244 -246.67010918 331.76677437 -252 305.9375 C-252.14743652 305.22682373 -252.29487305 304.51614746 -252.44677734 303.78393555 C-255.43213787 288.14141634 -256.0623098 272.50580394 -256 256.625 C-255.99817719 255.65760895 -255.99635437 254.6902179 -255.99447632 253.69351196 C-255.94904826 239.36059023 -255.44016072 225.41476083 -252.6875 211.3125 C-252.44604248 209.96696045 -252.44604248 209.96696045 -252.19970703 208.59423828 C-241.37712011 148.78411096 -207.31935543 91.27004171 -158.6875 54.3125 C-158.14722168 53.89581055 -157.60694336 53.47912109 -157.05029297 53.04980469 C-147.0552884 45.3665127 -136.59540964 38.62407032 -125.6875 32.3125 C-125.01025879 31.91820801 -124.33301758 31.52391602 -123.63525391 31.11767578 C-100.7166244 17.93538827 -75.14177437 9.32989082 -49.3125 4 C-48.60182373 3.85256348 -47.89114746 3.70512695 -47.15893555 3.55322266 C-31.51641634 0.56786213 -15.88080394 -0.0623098 0 0 Z " fill="#00C8C5" transform="translate(255.6875,-0.3125)"/>
<path d="M0 0 C0.66721677 -0.00297112 1.33443354 -0.00594224 2.021869 -0.0090034 C4.23853545 -0.01761563 6.45514742 -0.01919225 8.67182922 -0.02069092 C10.26913567 -0.02532441 11.86644103 -0.03034977 13.46374512 -0.03573608 C17.79044422 -0.04881116 22.11712784 -0.05529548 26.4438436 -0.05974674 C29.15177157 -0.06268545 31.85969537 -0.06679174 34.56762123 -0.07125092 C43.05400022 -0.0849131 51.54036963 -0.09458595 60.02675885 -0.09845281 C69.79724714 -0.10293023 79.5675953 -0.12046888 89.33804101 -0.1494534 C96.90773669 -0.17112383 104.47739309 -0.18115994 112.04711944 -0.18249393 C116.56012073 -0.18353814 121.07299007 -0.18936374 125.58595848 -0.20731354 C129.83531476 -0.2238872 134.0844412 -0.22590503 138.33381844 -0.21717453 C139.88490798 -0.2164091 141.43601037 -0.22068095 142.98706818 -0.23063278 C158.06388869 -0.32161994 172.35529547 1.72526286 183.82539368 12.39044189 C193.36013289 22.81691931 196.48716211 34.60957982 196.3938446 48.48088074 C196.39852458 49.56803755 196.40320455 50.65519436 196.40802634 51.77529532 C196.4199162 55.38924401 196.41054242 59.00280928 196.40107727 62.61676025 C196.40514565 65.21957113 196.41048902 67.82238027 196.41700745 70.42518616 C196.43030128 76.74373155 196.42748642 83.06216963 196.41876952 89.38071912 C196.41197557 94.51956936 196.41108363 99.65838967 196.41434097 104.79724312 C196.41480067 105.53053414 196.41526037 106.26382517 196.415734 107.01933714 C196.41669324 108.5093335 196.41766589 109.99932985 196.41865177 111.48932619 C196.42719308 125.43983555 196.41739167 139.39028563 196.40125068 153.34078527 C196.38785144 165.29120505 196.39017477 177.24153737 196.40400696 189.19195557 C196.42008993 203.09331419 196.42636628 216.99462094 196.41717017 230.89598757 C196.41621459 232.38060001 196.41527148 233.86521245 196.41434097 235.34982491 C196.41387815 236.08014483 196.41341532 236.81046475 196.41293847 237.56291557 C196.41035651 242.690551 196.41470244 247.81815332 196.42177963 252.94578362 C196.43111053 259.85778116 196.42439267 266.76961151 196.40709686 273.68159294 C196.40314198 276.21311165 196.40424888 278.74464428 196.41088486 281.27615738 C196.41912985 284.74196282 196.40874262 288.20724683 196.3938446 291.67301941 C196.40053677 292.66555424 196.40722893 293.65808907 196.41412389 294.68070072 C196.30651521 307.66118441 192.72766082 320.21808862 183.82539368 329.95294189 C171.58818421 341.14354792 156.60879648 342.59798599 140.7545929 342.51275635 C139.15330266 342.51518976 137.55201395 342.51891439 135.95072937 342.52381897 C131.63677393 342.53315489 127.32304829 342.52386532 123.00911093 342.51048684 C118.47612101 342.49909564 113.94314113 342.50328564 109.41014099 342.50523376 C101.80291531 342.50611415 94.19577917 342.49508851 86.58857727 342.47662354 C77.81344985 342.45544464 69.03845335 342.45195084 60.26330554 342.45818549 C51.79293723 342.46389374 43.32261467 342.45821727 34.85225296 342.44701195 C31.26000745 342.44238685 27.66779011 342.44148299 24.07554245 342.44359779 C19.84173651 342.44549113 15.60806251 342.43729697 11.37428665 342.4215374 C9.82720231 342.41732082 8.28010452 342.41642614 6.73301697 342.4192276 C-7.83687533 342.44159512 -20.27523689 340.90070273 -32.29960632 331.89044189 C-42.23321471 321.72581936 -46.44380344 310.66266406 -46.44029236 296.48046875 C-46.40932465 294.57192108 -46.40932465 294.57192108 -46.37773132 292.62481689 C-46.37024783 291.27434132 -46.36456491 289.92385469 -46.36058044 288.57336426 C-46.34548926 285.06165251 -46.30635685 281.55062901 -46.26176453 278.03918457 C-46.22044916 274.43891877 -46.20227194 270.83853571 -46.18241882 267.23809814 C-46.14197515 260.20494321 -46.06364684 253.1736648 -45.98710632 246.14044189 C-36.08710632 246.14044189 -26.18710632 246.14044189 -15.98710632 246.14044189 C-15.96132507 250.18552002 -15.93554382 254.23059814 -15.90898132 258.39825439 C-15.87728154 261.63393766 -15.84163018 264.86952398 -15.80331421 268.10513306 C-15.76401448 271.51503499 -15.73159717 274.92467753 -15.71611023 278.33477783 C-15.69799807 282.25210436 -15.64802415 286.16871948 -15.59648132 290.08575439 C-15.59525269 291.3015921 -15.59402405 292.51742981 -15.59275818 293.77011108 C-15.5090358 302.29746098 -15.5090358 302.29746098 -10.98710632 309.14044189 C-7.02798444 311.14717163 -3.72740525 311.39342995 0.679245 311.40113831 C1.33603009 311.40496385 1.99281518 311.4087894 2.66950285 311.41273087 C4.86266198 311.42302105 7.05555734 311.41907639 9.24873352 311.4151001 C10.82430259 311.41944881 12.39986954 311.4246325 13.97543335 311.43058777 C18.25028818 311.44397263 22.52505458 311.44455695 26.79992628 311.44202447 C30.37094128 311.4409543 33.94193842 311.44583938 37.51294959 311.45062989 C45.93937684 311.46172355 54.36575952 311.46216344 62.79219055 311.45611572 C71.4792122 311.45007673 80.16607184 311.46238535 88.85306585 311.48368579 C96.31649443 311.5013118 103.77987149 311.50730153 111.24332011 311.50404805 C115.69861355 311.50223646 120.15379145 311.50485884 124.60906601 311.51876259 C128.80012079 311.53135239 132.99092343 311.52938599 137.18197441 311.5163517 C138.71741891 311.51398878 140.25288121 311.51671041 141.78830528 311.52497482 C143.89001905 311.53546879 145.99089091 311.5273215 148.09257507 311.5146637 C149.26689779 311.51483144 150.44122051 311.51499918 151.65112877 311.515172 C155.72200477 311.06139851 158.47209226 310.22263203 162.01289368 308.14044189 C165.59245423 302.49503259 165.43800633 296.97045572 165.3938446 290.4304657 C165.40086456 288.82913358 165.40086456 288.82913358 165.40802634 287.19545132 C165.41997654 283.6241721 165.41051872 280.05327659 165.40107727 276.48199463 C165.40514292 273.91929907 165.41048476 271.35660527 165.41700745 268.79391479 C165.42926664 262.55970761 165.42747282 256.32564214 165.41876952 250.0914331 C165.41198904 245.02442254 165.41107783 239.95744234 165.41434097 234.89042854 C165.41503052 233.80789577 165.41503052 233.80789577 165.415734 232.70349364 C165.41669319 231.23732176 165.41766583 229.77114989 165.41865177 228.30497802 C165.42720183 214.56402385 165.41737726 200.82312977 165.40125068 187.08218545 C165.38784498 175.29468943 165.39017838 163.50728203 165.40400696 151.7197876 C165.42006466 138.02580416 165.42638089 124.33187335 165.41717017 110.63788182 C165.41621453 109.17746771 165.41527142 107.7170536 165.41434097 106.25663948 C165.41387815 105.53811589 165.41341532 104.81959229 165.41293847 104.07929526 C165.41034936 99.01851773 165.4147178 93.95777362 165.42177963 88.89700127 C165.43107609 82.0852042 165.42444929 75.27360042 165.40709686 68.46181107 C165.40312575 65.96002671 165.40427669 63.45822829 165.41088486 60.95644951 C165.41906534 57.54525321 165.40882042 54.13459625 165.3938446 50.72343445 C165.40388285 49.23350602 165.40388285 49.23350602 165.41412389 47.71347803 C165.36988267 42.52890614 165.25988121 38.42645087 162.01289368 34.14044189 C157.32054312 31.47212669 153.44658903 30.76464703 148.0993042 30.75949097 C147.44010469 30.75481099 146.78090518 30.75013102 146.10172993 30.74530923 C143.91232118 30.73342741 141.72354632 30.74278901 139.53413391 30.7522583 C137.95664609 30.74818959 136.37916112 30.74284602 134.80168152 30.73632812 C130.53109674 30.72268545 126.26073008 30.72794023 121.99014163 30.73746538 C117.51530301 30.74507647 113.04048269 30.73801247 108.56564331 30.73330688 C101.05299028 30.72785412 93.54042583 30.73502896 86.02778625 30.74932861 C77.34751049 30.76566016 68.66744607 30.76036106 59.98717541 30.7438494 C52.52711125 30.73022797 45.06711065 30.7283179 37.60703808 30.7361654 C33.1546104 30.74083755 28.70228202 30.74147928 24.24986076 30.73155594 C20.06451285 30.72287878 15.87943707 30.72892178 11.6941185 30.74623871 C10.15987029 30.7501993 8.62559911 30.74907681 7.09136009 30.74245071 C4.99376593 30.73422798 2.89703873 30.74456421 0.79949951 30.75949097 C-0.9594708 30.76118758 -0.9594708 30.76118758 -2.75397587 30.76291847 C-7.23790991 31.28649466 -10.61634715 32.78572089 -13.83508301 35.96679688 C-15.31195993 38.75337778 -15.38523764 40.76852299 -15.41947937 43.91876221 C-15.43927353 45.0796637 -15.45906769 46.24056519 -15.47946167 47.43664551 C-15.48904655 49.30869659 -15.48904655 49.30869659 -15.49882507 51.21856689 C-15.51677628 52.50027771 -15.53472748 53.78198853 -15.55322266 55.10253906 C-15.600672 58.50220646 -15.6305136 61.90180772 -15.65666199 65.30169678 C-15.68649344 68.77411874 -15.73285402 72.24631751 -15.77812195 75.71856689 C-15.86565613 82.52587642 -15.92564118 89.33264705 -15.98710632 96.14044189 C-25.88710632 96.14044189 -35.78710632 96.14044189 -45.98710632 96.14044189 C-46.07133483 88.40077801 -46.15142957 80.66280489 -46.19410706 72.92308044 C-46.21510056 69.31776011 -46.24308249 65.71282506 -46.28886414 62.10772705 C-46.33279741 58.62580378 -46.35634154 55.14425059 -46.3666153 51.66207123 C-46.3774432 49.70806149 -46.40859067 47.7541976 -46.44029236 45.80041504 C-46.44359399 32.4642568 -42.84289337 22.16831841 -33.98710632 12.14044189 C-24.81854375 3.12468869 -12.5205287 0.03136752 0 0 Z " fill="#FBFEFE" transform="translate(198.9871063232422,84.85955810546875)"/>
<path d="M0 0 C4.17615799 1.63743934 6.9648153 4.69781792 10.05371094 7.82666016 C10.9470388 8.71954994 10.9470388 8.71954994 11.8584137 9.63047791 C13.82184643 11.59530177 15.77810373 13.56711039 17.734375 15.5390625 C19.0958564 16.90427479 20.45778061 18.26904561 21.82012939 19.63339233 C25.40183824 23.22273159 28.9774999 26.8180368 32.55194092 30.41461182 C36.20157121 34.08471319 39.85688092 37.74914829 43.51171875 41.4140625 C50.68005329 48.60383652 57.842013 55.79992516 65 63 C63.36256066 67.17615799 60.30218208 69.9648153 57.17333984 73.05371094 C56.57807999 73.64926285 55.98282013 74.24481476 55.36952209 74.8584137 C53.40469823 76.82184643 51.43288961 78.77810373 49.4609375 80.734375 C48.09572521 82.0958564 46.73095439 83.45778061 45.36660767 84.82012939 C41.77726841 88.40183824 38.1819632 91.9774999 34.58538818 95.55194092 C30.91528681 99.20157121 27.25085171 102.85688092 23.5859375 106.51171875 C16.39616348 113.68005329 9.20007484 120.842013 2 128 C-1.42482707 126.38223883 -3.65690522 124.57656756 -6.328125 121.8671875 C-7.52695312 120.65869141 -7.52695312 120.65869141 -8.75 119.42578125 C-9.575 118.58402344 -10.4 117.74226563 -11.25 116.875 C-12.09046875 116.02550781 -12.9309375 115.17601562 -13.796875 114.30078125 C-15.86915683 112.20495077 -17.93662393 110.10459287 -20 108 C-11.56199076 98.15565588 -2.16818169 89.16818169 7 80 C-48.11 79.67 -103.22 79.34 -160 79 C-160 69.1 -160 59.2 -160 49 C-77.335 48.505 -77.335 48.505 7 48 C-1.91 39.09 -10.82 30.18 -20 21 C-13.25 13.125 -13.25 13.125 -10.3515625 10.25390625 C-9.73925781 9.64482422 -9.12695312 9.03574219 -8.49609375 8.40820312 C-7.87863281 7.79912109 -7.26117188 7.19003906 -6.625 6.5625 C-5.98433594 5.92634766 -5.34367188 5.29019531 -4.68359375 4.63476562 C-3.12469121 3.08749668 -1.56348584 1.54263508 0 0 Z " fill="#FEFEFE" transform="translate(213,192)"/>
</svg>
